<svg xmlns="http://www.w3.org/2000/svg" width="1000.000000pt" height="363.000000pt" version="1.0" viewBox="0 0 1000.000000 363.000000"><path d="M192.8 11.3c-17.4 5.8-23.7 27.1-11.9 40.8 15 17.7 44.1 7 44-16.1 0-10.2-4.4-17.8-12.9-22.4-5.9-3.2-13.7-4.1-19.2-2.3M35 111v94h42v-6c0-3.3.3-6 .6-6s2.3 1.4 4.4 3c2.1 1.7 6.8 4.4 10.5 6.2 5.7 2.6 8.3 3.2 16.4 3.6 11.6.5 18.5-.8 27.7-5.2 22.6-10.9 36.4-34.7 36.4-62.9 0-37.4-24.5-66.1-59.3-69.3-9.5-.8-20.7 1-28.6 4.6-3.5 1.7-6.5 3-6.7 3S78 62.7 78 46.5V17H35zm75.9 2.6c6.8 2 13.2 7.8 16.1 14.6 5.9 13.6-2.1 30.1-16.4 34.3-7 2.1-12.7 1.3-19.5-2.6-9.1-5.2-14.3-16.7-12-26.7 2.1-9.7 8-16.5 16.9-19.6 5.8-1.9 8.4-2 14.9 0M231 111v94l21.5-.2 21.5-.3v-187l-21.5-.3L231 17zM284 111v94h43V17h-43zM337 111v94l21.3-.2 21.2-.3.3-5.7.3-5.7 4.8 3.4c9.1 6.5 15.4 8.8 26.4 9.3 6 .3 12.1 0 15.5-.8 12.5-2.7 26-11.6 33.8-22.3 5.8-7.9 8.1-12.2 11.4-22.2l2.7-8 1.3 4.5c1.7 6.1 7 16.4 11.9 23 8.3 11.3 23.5 21.2 37.3 24.5 9 2.1 22.9 1.9 32.2-.5 18.4-4.7 34.3-17.5 42.9-34.8 2.5-5.1 4.9-10.9 5.3-12.9.7-3.6.7-3.5 3.6 5.2 3.9 12.2 7.9 18.8 16.3 27.1 12.2 12.1 25.4 17.4 43.6 17.4 11.8 0 18.4-1.5 26.7-6.1l5.2-2.9v8h43V70h-43v9.9l-5-3.4c-15.8-10.7-36.4-11.2-55.9-1.4-14.1 7-25.3 21-30.6 37.9-.9 3-1.9 6.2-2.2 7-.2.8-1.5-1.7-2.7-5.6-8.4-26.1-31.9-45-58.9-47-30.5-2.4-58.8 16.9-68.9 47l-2.6 7.9-1.2-4.4c-3.1-12.2-9.3-23.2-18-31.7-17.9-17.6-47.4-23.1-68.6-12.7-2.8 1.4-5.4 2.5-5.7 2.5-.4 0-.7-13.3-.7-29.5V17h-43zm214.8 1.9c5.4 2.8 11.7 10.1 13.2 15.6 2.6 9.4-.5 20.2-7.6 26.5-5.1 4.5-9.9 6.3-16.4 6.3-9.8 0-17.8-4.8-22.5-13.4-11.6-21.4 11.8-46 33.3-35m128.3-.4c10 3.6 15.9 11.4 16.7 22.4.6 8.3-2.1 15.4-7.9 20.6-5.2 4.7-10 6.5-17.1 6.5s-11.3-1.6-16.6-6.5c-5.8-5.2-8.2-10.7-8.2-18.6 0-17.9 16.7-30.2 33.1-24.4m-261.9 3.2c8.4 4.6 12.8 12.3 12.8 22.3 0 7.3-1.6 11.4-6.6 17-5.5 6-10.6 8.4-18.4 8.4-8 0-13.1-2.4-18.7-8.8-12.6-14.3-5.6-37 13-41.7 5-1.2 12.7 0 17.9 2.8M923.7 17.7c-.4.3-.7 13.6-.7 29.5 0 15.8-.2 28.8-.5 28.8s-2.9-1.2-5.7-2.6c-14.9-7.5-34.9-6.9-52.6 1.7-16.1 7.8-28.7 23.7-33.8 42.9-2.5 9-2.5 30 0 39 3.4 12.7 9 22.5 17.9 31.5 13.4 13.4 25.3 18.1 43.6 17.3 11.3-.6 18.1-2.9 25.9-8.8 2.9-2.2 5.5-4 5.7-4 .3 0 .5 2.7.5 6v6h41V17h-20.3c-11.2 0-20.7.3-21 .7M907 114.1c10.1 4.5 15.3 12.6 15.4 23.4.1 7.9-2 13-7.6 18.5-10.4 10.5-28.6 9.1-37.3-2.9-7.1-9.8-7.2-20.8-.1-30.9 6.2-9 19.5-12.7 29.6-8.1M814.6 70.7c-5.8 1.7-12.6 6.1-15.5 10l-2 2.8-.1-6.8V70l-21.5.2-21.5.3-.1 67v67l21.5.3 21.5.2.3-36.8.3-36.8 2.6-4.9c3.6-7 9.6-10.6 18.9-11.3l7-.5V69l-3.2.1c-1.8 0-5.5.7-8.2 1.6M178.2 137.2l.3 67.3h43l.3-67.3.2-67.2h-44zM493.2 233c-10.3 2.7-16.6 6.4-24.7 14.5-10.7 10.7-15.5 22.4-15.5 37.6 0 16.8 4.9 29.1 15.8 39.9 31.1 30.5 84.8 15.3 93.7-26.5 2.8-13.2 1.2-26.6-4.7-38.4-3.7-7.7-13.9-18.3-21.5-22.4-12.1-6.4-29.2-8.3-43.1-4.7m24.5 23.5c6.7 2 13.4 8 16.4 14.7 3.2 7.2 3.3 22 .2 28.9-5 11.2-13.1 16.3-25.8 16.3-12.2 0-20-4.6-25.2-14.8-3.5-6.7-4.3-18.7-1.9-26.9 4.3-14.8 20.4-22.9 36.3-18.2M688 243.5V256h19v41.7l-.1 41.8 13.6.3 13.5.3V231h-46zM787.4 232.4c-18.3 4.2-33.6 17.8-39.5 35.2-3.1 9.1-3.3 26.9-.5 35.4 7.3 22 26.3 36.4 49.7 37.8 16.9.9 31.5-4.4 42.9-15.7 11.9-11.9 16.6-24.8 15.7-42.6-.3-6.2-1.3-12.2-2.5-15.7-5.4-15.2-17.8-27.2-33.8-32.9-7.7-2.7-23.5-3.4-32-1.5m22.7 24.2c7.5 2.2 14.8 9.6 17.3 17.7 4 12.8.6 28.1-8 35.7-5.7 5-9.9 6.4-18.9 6.4-12.7 0-20.7-5.1-25.9-16.3-3.1-6.8-2.9-21.6.3-28.9 5.8-13 20.2-19 35.2-14.6M900.4 232.4c-23.9 5.5-40.5 25-42.1 49.7-1.3 20.4 7.1 38.2 23.4 49.2 16.9 11.4 39.9 12.8 58.4 3.5 8.3-4.1 18.7-14.5 22.8-22.5 7.9-15.8 8.1-36.2.4-51.9-3.3-6.9-11.7-16.2-18.3-20.4-12.1-7.8-30.3-10.9-44.6-7.6m22.7 24.2c7.5 2.2 14.8 9.6 17.3 17.7 2.6 8.4 1.9 20.3-1.7 27.3-2.9 5.7-8.2 10.9-13.6 13.2-5.8 2.5-18.5 2.2-24.3-.6-5.5-2.7-10.3-7.8-13.2-14.1-3.1-6.8-2.9-21.6.3-28.9 5.8-13 20.2-19 35.2-14.6M233 286v54h65v-20h-39v-25h35v-20h-35v-23h39v-20h-65zM31 243.1v10l14.5-.3 14.5-.3V340h27l.2-43.6.3-43.6 14.3.1 14.2.2V233H31zM123.8 286.5l.2 53.5h26v-45l20.8.2 20.7.3.3 22.3.2 22.2h26V233h-26v42h-42v-42h-26.5zM350 286.5v53.6l13.3-.3 13.2-.3.2-22 .2-22 20.5-.3 20.6-.2v45h27V233h-27v42h-41.5l.2-21 .3-21h-27zM565 243v10.1l14.3-.2 14.2-.1.3 43.6.2 43.6h27v-87.5l14.5.3 14.5.3V233h-85z"/></svg>